<?xml version="1.0" encoding="utf-8"?>
<!-- Generator: Adobe Illustrator 23.0.3, SVG Export Plug-In . SVG Version: 6.00 Build 0)  -->
<svg version="1.1" id="Capa_1" xmlns="http://www.w3.org/2000/svg" xmlns:xlink="http://www.w3.org/1999/xlink" x="0px" y="0px"
	 viewBox="0 0 305.26 85.04" style="enable-background:new 0 0 305.26 85.04;" xml:space="preserve">
<style type="text/css">
	.st0{fill:#235426;}
	.st1{font-family:'Verdana';}
	.st2{font-size:60px;}
	.st3{fill:#235326;}
	.st4{font-family:'MyriadPro-Regular';}
	.st5{font-size:48px;}
	.st6{fill:#205426;}
</style>
<g>
	<text transform="matrix(1 0 0 1 2.5783 59.49)" class="st0 st1 st2">eco</text>
</g>
<g>
	<text transform="matrix(1 0 0 1 175.5916 56.7688)" class="st3 st4 st5">SHOP</text>
</g>
<g>
	<g>
		<path class="st6" d="M138.66,54.24c-0.07,0.24-0.41,0.26-0.5,0.02c-3.36-8.97-3.35-17.21,1.96-24.88
			c8.3-11.99,20.36-13.74,34.43-11.63c-5.5,3.47-6.35,8.65-7.17,13.94c-1.95,12.56-7.44,21.99-21.45,23.83
			c-0.95,0.12-2.28,1.83-2.41,2.92c-0.33,2.89-0.12,5.84-0.12,9.18c0,0.1-0.06,0.2-0.15,0.24c-2.36,1.21-3.4,0.21-3.24-3
			c0.52-10.49,3.45-20.26,8.6-29.39c0.79-1.41,1.67-2.76,2.83-4.67C145.98,34.66,142.75,40.63,138.66,54.24z"/>
		<path class="st6" d="M106.54,33.7c13.02-5.89,23.59-0.85,26.58,13.49c0.06,0.27-0.31,0.43-0.47,0.2
			c-0.05-0.08-10.19-6.5-11.48-5.66l10.67,9.04c0.08,0.13,0.03,0.3-0.1,0.37c-7.09,3.84-14.66,1.28-19.11-6.34
			c-2.04-3.49-4.05-6.99-6.21-10.73C106.34,33.95,106.4,33.77,106.54,33.7z"/>
	</g>
</g>
</svg>
